<svg width="5328" height="1611" viewBox="0 0 5328 1611" fill="none" xmlns="http://www.w3.org/2000/svg">
<path d="M787.465 766L670.277 349.984H732.973L830.238 716.195H835.512L932.777 349.984H995.473L878.285 766H787.465ZM1804.69 771.859C1757.62 771.859 1723.54 762.094 1702.44 742.562C1681.54 723.031 1671.09 691.781 1671.09 648.812V596.078H1733.2V645.883C1733.2 670.492 1739.16 688.363 1751.07 699.496C1763.18 710.629 1783.01 716.195 1810.55 716.195C1820.31 716.195 1830.66 715.707 1841.6 714.73C1852.54 713.559 1865.04 712.094 1879.1 710.336L1886.13 764.828C1872.46 767.172 1859.08 768.93 1846 770.102C1833.11 771.273 1819.34 771.859 1804.69 771.859ZM1671.09 619.516V361.703H1733.2V619.516H1671.09ZM1593.16 506.43V455.453H1874.41V506.43H1593.16ZM2653.45 766V473.031H2715.56V766H2653.45ZM2535.09 766V715.023H2659.31V766H2535.09ZM2709.7 766V715.023H2811.07V766H2709.7ZM2552.67 506.43V455.453H2715.56V506.43H2552.67ZM2682.46 406.234C2670.54 406.234 2660.29 402.035 2651.7 393.637C2643.3 385.043 2639.1 374.789 2639.1 362.875C2639.1 350.766 2643.3 340.512 2651.7 332.113C2660.29 323.715 2670.54 319.516 2682.46 319.516C2694.57 319.516 2704.82 323.715 2713.22 332.113C2721.62 340.512 2725.82 350.766 2725.82 362.875C2725.82 374.789 2721.62 385.043 2713.22 393.637C2704.82 402.035 2694.57 406.234 2682.46 406.234ZM3549.09 771.859C3516.48 771.859 3491.18 762.191 3473.21 742.855C3455.44 723.324 3446.55 695.883 3446.55 660.531V455.453H3508.66V660.531C3508.66 678.305 3513.74 692.074 3523.9 701.84C3534.05 711.41 3548.31 716.195 3566.67 716.195C3589.33 716.195 3606.42 709.066 3617.94 694.809C3629.46 680.355 3635.23 656.234 3635.23 622.445L3651.05 706.234H3630.54C3625.66 727.328 3616.09 743.539 3601.83 754.867C3587.57 766.195 3569.99 771.859 3549.09 771.859ZM3640.5 768.93L3635.23 694.516V640.023H3697.34V709.75L3740.11 716.195V766L3640.5 768.93ZM3635.23 678.109V455.453H3697.34V660.531L3635.23 678.109ZM4471.1 771.859C4447.66 771.859 4427.55 771.176 4410.75 769.809C4394.15 768.441 4378.91 766.195 4365.05 763.07L4372.08 706.82C4392.59 709.945 4410.65 712.289 4426.28 713.852C4442.1 715.414 4457.04 716.195 4471.1 716.195C4502.55 716.195 4525.3 713.168 4539.36 707.113C4553.62 700.863 4560.75 691 4560.75 677.523C4560.75 668.148 4558.21 661.215 4553.13 656.723C4548.25 652.035 4540.63 648.422 4530.28 645.883L4458.8 627.719C4428.13 619.906 4405.57 610.238 4391.12 598.715C4376.86 587.191 4369.73 569.711 4369.73 546.273C4369.73 512.289 4382.72 487.68 4408.7 472.445C4434.87 457.211 4476.96 449.594 4534.97 449.594C4550.01 449.594 4563.97 450.082 4576.86 451.059C4589.95 451.84 4603.33 453.305 4617 455.453L4610.55 509.359C4594.73 507.797 4580.77 506.723 4568.66 506.137C4556.55 505.551 4544.73 505.258 4533.21 505.258C4498.45 505.258 4473.25 508.285 4457.62 514.34C4442 520.199 4434.19 529.867 4434.19 543.344C4434.19 552.328 4437.41 558.871 4443.86 562.973C4450.3 566.879 4460.16 570.492 4473.45 573.812L4530.87 587.875C4563.48 595.688 4587.31 606.137 4602.35 619.223C4617.59 632.309 4625.2 651.352 4625.2 676.352C4625.2 709.75 4613 734.066 4588.58 749.301C4564.17 764.34 4525.01 771.859 4471.1 771.859Z" fill="black"/>
<line x1="564" y1="1101" x2="4940" y2="1101" stroke="black" stroke-width="28"/>
<path d="M553.824 1494L516.812 1390.48H538.883L566.715 1476.42H568.473L596.305 1390.48H618.375L581.363 1494H553.824ZM1244.72 1495.95C1229.03 1495.95 1217.67 1492.7 1210.64 1486.19C1203.67 1479.68 1200.19 1469.26 1200.19 1454.94V1437.36H1220.89V1453.96C1220.89 1462.16 1222.88 1468.12 1226.85 1471.83C1230.88 1475.54 1237.49 1477.4 1246.67 1477.4C1249.93 1477.4 1253.38 1477.24 1257.02 1476.91C1260.67 1476.52 1264.84 1476.03 1269.52 1475.45L1271.87 1493.61C1267.31 1494.39 1262.85 1494.98 1258.49 1495.37C1254.19 1495.76 1249.6 1495.95 1244.72 1495.95ZM1200.19 1445.17V1359.23H1220.89V1445.17H1200.19ZM1174.21 1407.48V1390.48H1267.96V1407.48H1174.21ZM2210.02 1494V1396.34H2230.72V1494H2210.02ZM2170.56 1494V1477.01H2211.97V1494H2170.56ZM2228.77 1494V1477.01H2262.55V1494H2228.77ZM2176.42 1407.48V1390.48H2230.72V1407.48H2176.42ZM2219.68 1374.08C2215.71 1374.08 2212.29 1372.68 2209.43 1369.88C2206.63 1367.01 2205.23 1363.6 2205.23 1359.62C2205.23 1355.59 2206.63 1352.17 2209.43 1349.37C2212.29 1346.57 2215.71 1345.17 2219.68 1345.17C2223.72 1345.17 2227.14 1346.57 2229.94 1349.37C2232.74 1352.17 2234.14 1355.59 2234.14 1359.62C2234.14 1363.6 2232.74 1367.01 2229.94 1369.88C2227.14 1372.68 2223.72 1374.08 2219.68 1374.08ZM3190.94 1495.95C3180.07 1495.95 3171.63 1492.73 3165.64 1486.29C3159.72 1479.77 3156.76 1470.63 3156.76 1458.84V1390.48H3177.46V1458.84C3177.46 1464.77 3179.15 1469.36 3182.54 1472.61C3185.92 1475.8 3190.68 1477.4 3196.8 1477.4C3204.35 1477.4 3210.05 1475.02 3213.89 1470.27C3217.73 1465.45 3219.65 1457.41 3219.65 1446.15L3224.92 1474.08H3218.09C3216.46 1481.11 3213.27 1486.51 3208.52 1490.29C3203.76 1494.07 3197.9 1495.95 3190.94 1495.95ZM3221.41 1494.98L3219.65 1470.17V1452.01H3240.35V1475.25L3254.61 1477.4V1494L3221.41 1494.98ZM3219.65 1464.7V1390.48H3240.35V1458.84L3219.65 1464.7ZM4180.65 1495.95C4172.84 1495.95 4166.13 1495.73 4160.53 1495.27C4155 1494.81 4149.92 1494.07 4145.3 1493.02L4147.64 1474.27C4154.48 1475.32 4160.5 1476.1 4165.71 1476.62C4170.98 1477.14 4175.96 1477.4 4180.65 1477.4C4191.13 1477.4 4198.71 1476.39 4203.4 1474.37C4208.15 1472.29 4210.53 1469 4210.53 1464.51C4210.53 1461.38 4209.68 1459.07 4207.99 1457.57C4206.36 1456.01 4203.83 1454.81 4200.38 1453.96L4176.55 1447.91C4166.33 1445.3 4158.81 1442.08 4153.99 1438.24C4149.24 1434.4 4146.86 1428.57 4146.86 1420.76C4146.86 1409.43 4151.19 1401.23 4159.85 1396.15C4168.57 1391.07 4182.6 1388.53 4201.94 1388.53C4206.95 1388.53 4211.61 1388.69 4215.9 1389.02C4220.26 1389.28 4224.72 1389.77 4229.28 1390.48L4227.13 1408.45C4221.86 1407.93 4217.2 1407.57 4213.17 1407.38C4209.13 1407.18 4205.19 1407.09 4201.35 1407.09C4189.76 1407.09 4181.36 1408.1 4176.16 1410.11C4170.95 1412.07 4168.34 1415.29 4168.34 1419.78C4168.34 1422.78 4169.42 1424.96 4171.57 1426.32C4173.71 1427.63 4177 1428.83 4181.43 1429.94L4200.57 1434.62C4211.44 1437.23 4219.39 1440.71 4224.4 1445.07C4229.48 1449.44 4232.02 1455.78 4232.02 1464.12C4232.02 1475.25 4227.95 1483.36 4219.81 1488.43C4211.67 1493.45 4198.62 1495.95 4180.65 1495.95ZM4856.99 1495.95C4839.35 1495.95 4825.71 1491.33 4816.07 1482.09C4806.5 1472.78 4801.72 1459.43 4801.72 1442.05C4801.72 1425.12 4805.79 1411.97 4813.93 1402.59C4822.06 1393.22 4833.55 1388.53 4848.4 1388.53C4862.4 1388.53 4873.2 1392.76 4880.82 1401.23C4888.5 1409.69 4892.34 1421.99 4892.34 1438.14C4892.34 1442.89 4892.15 1447.32 4891.76 1451.42H4819.1V1435.6H4873.59C4873.59 1426.29 4871.38 1419.16 4866.95 1414.21C4862.53 1409.2 4856.41 1406.7 4848.59 1406.7C4839.8 1406.7 4832.97 1409.69 4828.09 1415.68C4823.27 1421.67 4820.86 1430.13 4820.86 1441.07C4820.86 1453.05 4824.18 1462.16 4830.82 1468.41C4837.53 1474.66 4847.03 1477.79 4859.34 1477.79C4863.63 1477.79 4867.86 1477.56 4872.03 1477.11C4876.2 1476.58 4880.43 1475.9 4884.73 1475.05L4887.27 1493.22C4881.15 1494.39 4875.55 1495.14 4870.47 1495.46C4865.39 1495.79 4860.9 1495.95 4856.99 1495.95Z" fill="black"/>
</svg>
